<svg xmlns="http://www.w3.org/2000/svg" xmlns:xlink="http://www.w3.org/1999/xlink" width="128" zoomAndPan="magnify" viewBox="0 0 96 95.999999" height="128" preserveAspectRatio="xMidYMid meet" version="1.0"><defs><clipPath id="286c7aeec7"><path d="M 6.476562 -3.046875 L 88.90625 -3.046875 C 91.160156 -3.046875 93.324219 -2.148438 94.921875 -0.554688 C 96.515625 1.039062 97.414062 3.203125 97.414062 5.457031 L 97.414062 92.339844 C 97.414062 94.597656 96.515625 96.761719 94.921875 98.355469 C 93.324219 99.949219 91.160156 100.847656 88.90625 100.847656 L 6.476562 100.847656 C 4.222656 100.847656 2.058594 99.949219 0.460938 98.355469 C -1.132812 96.761719 -2.027344 94.597656 -2.027344 92.339844 L -2.027344 5.457031 C -2.027344 3.203125 -1.132812 1.039062 0.460938 -0.554688 C 2.058594 -2.148438 4.222656 -3.046875 6.476562 -3.046875 Z M 6.476562 -3.046875 " clip-rule="nonzero"/></clipPath><clipPath id="759b7cc106"><path d="M 6.476562 -3.046875 L 88.90625 -3.046875 C 91.160156 -3.046875 93.324219 -2.148438 94.921875 -0.554688 C 96.515625 1.039062 97.414062 3.203125 97.414062 5.457031 L 97.414062 92.339844 C 97.414062 94.597656 96.515625 96.761719 94.921875 98.355469 C 93.324219 99.949219 91.160156 100.847656 88.90625 100.847656 L 6.476562 100.847656 C 4.222656 100.847656 2.058594 99.949219 0.460938 98.355469 C -1.132812 96.761719 -2.027344 94.597656 -2.027344 92.339844 L -2.027344 5.457031 C -2.027344 3.203125 -1.132812 1.039062 0.460938 -0.554688 C 2.058594 -2.148438 4.222656 -3.046875 6.476562 -3.046875 Z M 6.476562 -3.046875 " clip-rule="nonzero"/></clipPath><clipPath id="4ca14c4e11"><path d="M 61.019531 36.257812 L 91.40625 36.257812 L 91.40625 92.753906 L 61.019531 92.753906 Z M 61.019531 36.257812 " clip-rule="nonzero"/></clipPath></defs><rect x="-9.6" width="115.2" fill="#ffffff" y="-9.6" height="115.199999" fill-opacity="1"/><rect x="-9.6" width="115.2" fill="#ffffff" y="-9.6" height="115.199999" fill-opacity="1"/><g clip-path="url(#286c7aeec7)"><g clip-path="url(#759b7cc106)"><rect x="-9.6" width="115.2" fill="#000000" y="-9.6" height="115.199999" fill-opacity="1"/></g></g><g clip-path="url(#4ca14c4e11)"><path fill="#ffffff" d="M 75.804688 36.257812 C 79.203125 44.542969 82.914062 49.40625 85.277344 52.101562 C 87.144531 54.226562 97.378906 63.679688 85.585938 78.457031 C 92.59375 63.988281 90.070312 55.414062 77.542969 50.125 L 77.542969 80.75 C 77.933594 93.359375 64.972656 94.132812 61.8125 90.777344 C 58.546875 87.3125 66.246094 75.816406 75.804688 79.59375 Z M 75.804688 36.257812 " fill-opacity="1" fill-rule="evenodd"/></g><path fill="#ffffff" d="M 7.320312 47.671875 C 5.9375 37.527344 5.25 31.300781 5.25 29 C 5.25 26.695312 5.9375 24.617188 7.320312 22.773438 C 8.703125 20.925781 10.242188 19.96875 11.9375 19.890625 C 13.625 19.96875 14.894531 20.3125 15.738281 20.929688 C 16.585938 21.546875 17.585938 22.773438 18.738281 24.617188 C 20.808594 28.078125 24.15625 31.957031 28.769531 36.257812 C 32.457031 39.871094 37.679688 44.367188 44.441406 49.746094 C 51.207031 55.121094 55.050781 57.847656 55.972656 57.929688 C 56.667969 57.929688 56.859375 56.699219 56.550781 54.242188 C 56.089844 46.019531 55.707031 38.371094 55.402344 31.304688 C 55.015625 24.234375 54.898438 19.621094 55.054688 17.472656 C 55.203125 15.320312 55.742188 13.746094 56.667969 12.746094 C 57.589844 11.746094 59.125 11.167969 61.277344 11.015625 C 63.429688 10.863281 64.851562 11.210938 65.542969 12.054688 C 66.238281 12.898438 66.816406 16.085938 67.277344 21.621094 C 67.738281 27.15625 68.238281 36.144531 68.773438 48.589844 C 69.3125 61.039062 69.503906 67.953125 69.347656 69.335938 C 69.195312 70.722656 68.464844 71.875 67.15625 72.796875 C 64.160156 75.101562 60.429688 75.175781 55.972656 73.027344 C 51.515625 70.875 44.523438 66.035156 34.992188 58.5 C 25.464844 50.820312 20.582031 47.09375 20.351562 47.328125 C 20.121094 47.554688 20.542969 50.859375 21.621094 57.238281 C 22.695312 63.617188 23.234375 67.574219 23.234375 69.109375 C 23.234375 70.644531 22.808594 71.988281 21.964844 73.140625 C 20.351562 75.675781 18.273438 76.484375 15.738281 75.566406 C 13.203125 74.644531 11.511719 72.296875 10.667969 68.53125 C 9.820312 64.765625 8.703125 57.8125 7.320312 47.671875 Z M 7.320312 47.671875 " fill-opacity="1" fill-rule="nonzero"/></svg>